<svg width="477" height="95" viewBox="0 0 477 95" fill="none" xmlns="http://www.w3.org/2000/svg">
<rect x="12" y="15" width="26.5" height="66" rx="4.12241" fill="url(#paint0_linear_3147_9544)"/>
<path d="M70.085 15.915C71.6949 14.3051 74.3051 14.3051 75.915 15.915L104.157 44.1573C105.767 45.7672 105.767 48.3773 104.157 49.9872L75.915 78.2295C74.3051 79.8394 71.6949 79.8394 70.085 78.2295L41.8427 49.9872C40.2328 48.3773 40.2328 45.7672 41.8427 44.1573L70.085 15.915Z" fill="url(#paint1_linear_3147_9544)"/>
<path d="M73.0137 26C73.4005 37.4159 82.5841 46.5985 94 46.9854V47.0137C82.5841 47.4005 73.4005 56.5841 73.0137 68H72.9863C72.5995 56.5841 63.4159 47.4005 52 47.0137V46.9854C63.4159 46.5985 72.5995 37.4159 72.9863 26H73.0137Z" fill="white"/>
<path d="M122.168 66.5V28.592H129.812V48.456L149.624 28.592H159.452L142.916 44.608L160.336 66.5H150.716L137.456 49.756L129.812 57.348V66.5H122.168ZM164.24 34.936V28.592H171.624V34.936H164.24ZM164.24 66.5V38.836H171.624V66.5H164.24ZM178.139 66.5V38.836H185.263L185.523 44.036H185.939C187.811 40.396 192.127 38.316 196.599 38.316C203.723 38.316 208.663 41.592 208.663 51.316V66.5H201.279V52.616C201.279 46.948 199.199 43.984 194.155 43.984C188.955 43.984 185.523 47.572 185.523 52.72V66.5H178.139ZM228.724 75.704C220.04 75.704 215.1 72.324 214.58 66.916H221.6C222.12 69.464 224.772 70.712 228.828 70.712C233.82 70.712 237.096 68.944 237.096 64.42V59.636H236.784C235.12 62.912 230.96 64.784 226.488 64.784C218.584 64.784 213.54 59.532 213.54 51.576C213.54 43.62 218.896 38.316 226.696 38.316C231.376 38.316 235.12 40.292 236.836 43.412H237.2L237.512 38.836H244.48V63.536C244.48 71.388 239.228 75.704 228.724 75.704ZM228.984 59.324C233.924 59.324 237.096 56.464 237.096 52.408V50.952C237.096 46.74 233.976 43.724 229.088 43.724C224.148 43.724 220.976 46.792 220.976 51.524C220.976 56.412 224.148 59.324 228.984 59.324ZM251.344 66.5V28.592H270.48C280.412 28.592 285.04 33.272 285.04 40.76C285.04 48.976 279.32 52.98 270.48 52.98L258.988 52.928V66.5H251.344ZM269.7 34.624H258.988V47.416L269.7 47.468C274.9 47.468 277.344 45.024 277.344 41.02C277.344 36.652 274.432 34.624 269.7 34.624ZM290.725 66.5V28.592H298.109V44.088H298.525C300.397 40.5 304.609 38.316 309.185 38.316C316.309 38.316 321.249 41.592 321.249 51.316V66.5H313.865V52.616C313.865 46.948 311.785 44.036 306.741 44.036C301.489 44.036 298.109 47.624 298.109 52.72V66.5H290.725ZM327.729 34.936V28.592H335.113V34.936H327.729ZM327.729 66.5V38.836H335.113V66.5H327.729ZM354.731 67.02C345.527 67.02 340.483 63.432 340.171 57.764H347.399C347.607 60.78 350.259 62.444 354.939 62.444C359.203 62.444 361.751 61.352 361.751 58.856C361.751 56.1 359.983 55.58 354.315 55.06C344.903 54.176 341.107 52.356 341.107 46.948C341.107 41.696 346.203 38.316 354.783 38.316C362.791 38.316 367.679 41.488 368.199 47.104H361.231C360.867 44.192 358.371 42.84 354.731 42.84C350.987 42.84 348.335 43.932 348.335 46.376C348.335 48.82 350.467 49.34 355.823 49.86C365.391 50.744 369.031 52.408 369.031 58.388C369.031 63.588 364.455 67.02 354.731 67.02ZM374.162 66.5V28.592H381.546V44.088H381.962C383.834 40.5 388.046 38.316 392.622 38.316C399.746 38.316 404.686 41.592 404.686 51.316V66.5H397.302V52.616C397.302 46.948 395.222 44.036 390.178 44.036C384.926 44.036 381.546 47.624 381.546 52.72V66.5H374.162ZM425.892 66.968C415.96 66.968 409.564 61.612 409.564 52.772C409.564 43.776 416.012 38.316 425.788 38.316C436.032 38.316 442.064 44.244 441.44 54.176H417C417.104 59.012 420.536 61.872 426.1 61.872C430.208 61.872 433.484 60.26 434.316 57.764H441.336C440.504 63.276 434.16 66.968 425.892 66.968ZM425.736 43.464C420.796 43.412 417.572 45.856 416.896 49.912H434.056C433.744 45.856 430.78 43.412 425.736 43.464ZM446.748 66.5V38.836H453.404L453.716 43.464H454.028C455.172 40.344 458.032 38.42 461.776 38.42C462.764 38.42 463.544 38.472 464.168 38.628V45.284C463.388 45.128 462.452 45.024 461.62 45.024C457.148 45.024 454.288 47.312 454.132 52.408V66.5H446.748Z" fill="#24223E"/>
<defs>
<linearGradient id="paint0_linear_3147_9544" x1="59.0603" y1="-51" x2="115.957" y2="-0.635042" gradientUnits="userSpaceOnUse">
<stop stop-color="#FEB527"/>
<stop offset="0.225" stop-color="#FC7473"/>
<stop offset="0.62" stop-color="#8920FE"/>
<stop offset="0.94" stop-color="#6E34FC"/>
</linearGradient>
<linearGradient id="paint1_linear_3147_9544" x1="167.58" y1="39.4354" x2="140.76" y2="110.784" gradientUnits="userSpaceOnUse">
<stop stop-color="#FEB527"/>
<stop offset="0.225" stop-color="#FC7473"/>
<stop offset="0.62" stop-color="#8920FE"/>
<stop offset="0.94" stop-color="#6E34FC"/>
</linearGradient>
</defs>
</svg>
