<svg xmlns="http://www.w3.org/2000/svg" xmlns:xlink="http://www.w3.org/1999/xlink" width="500" zoomAndPan="magnify" viewBox="0 0 375 135.000003" height="180" preserveAspectRatio="xMidYMid meet" version="1.0"><defs><g/></defs><g fill="#000000" fill-opacity="1"><g transform="translate(15.134201, 83.490327)"><g><path d="M 26.984375 -32.953125 C 26.648438 -32.523438 26.320312 -32.203125 26 -31.984375 C 25.675781 -31.765625 25.289062 -31.65625 24.84375 -31.65625 C 24.40625 -31.65625 23.96875 -31.796875 23.53125 -32.078125 C 23.101562 -32.359375 22.617188 -32.664062 22.078125 -33 C 21.535156 -33.34375 20.914062 -33.65625 20.21875 -33.9375 C 19.53125 -34.226562 18.710938 -34.375 17.765625 -34.375 C 16.898438 -34.375 16.140625 -34.25 15.484375 -34 C 14.835938 -33.757812 14.296875 -33.421875 13.859375 -32.984375 C 13.429688 -32.546875 13.109375 -32.035156 12.890625 -31.453125 C 12.671875 -30.867188 12.5625 -30.226562 12.5625 -29.53125 C 12.5625 -28.78125 12.769531 -28.148438 13.1875 -27.640625 C 13.613281 -27.128906 14.179688 -26.679688 14.890625 -26.296875 C 15.597656 -25.910156 16.394531 -25.554688 17.28125 -25.234375 C 18.164062 -24.910156 19.078125 -24.5625 20.015625 -24.1875 C 20.953125 -23.8125 21.867188 -23.378906 22.765625 -22.890625 C 23.660156 -22.398438 24.457031 -21.785156 25.15625 -21.046875 C 25.863281 -20.304688 26.429688 -19.414062 26.859375 -18.375 C 27.285156 -17.34375 27.5 -16.101562 27.5 -14.65625 C 27.5 -12.582031 27.140625 -10.628906 26.421875 -8.796875 C 25.703125 -6.960938 24.671875 -5.363281 23.328125 -4 C 21.992188 -2.632812 20.367188 -1.550781 18.453125 -0.75 C 16.546875 0.0507812 14.394531 0.453125 12 0.453125 C 10.8125 0.453125 9.617188 0.316406 8.421875 0.046875 C 7.222656 -0.210938 6.070312 -0.582031 4.96875 -1.0625 C 3.863281 -1.539062 2.835938 -2.109375 1.890625 -2.765625 C 0.953125 -3.429688 0.148438 -4.171875 -0.515625 -4.984375 L 2.765625 -9.28125 C 3.035156 -9.601562 3.363281 -9.863281 3.75 -10.0625 C 4.132812 -10.269531 4.523438 -10.375 4.921875 -10.375 C 5.453125 -10.375 5.96875 -10.191406 6.46875 -9.828125 C 6.96875 -9.460938 7.519531 -9.054688 8.125 -8.609375 C 8.726562 -8.171875 9.425781 -7.765625 10.21875 -7.390625 C 11.019531 -7.023438 12.007812 -6.84375 13.1875 -6.84375 C 14.894531 -6.84375 16.21875 -7.304688 17.15625 -8.234375 C 18.09375 -9.171875 18.5625 -10.554688 18.5625 -12.390625 C 18.5625 -13.234375 18.347656 -13.925781 17.921875 -14.46875 C 17.492188 -15.019531 16.9375 -15.484375 16.25 -15.859375 C 15.5625 -16.242188 14.773438 -16.582031 13.890625 -16.875 C 13.003906 -17.164062 12.097656 -17.476562 11.171875 -17.8125 C 10.242188 -18.15625 9.335938 -18.554688 8.453125 -19.015625 C 7.566406 -19.484375 6.78125 -20.085938 6.09375 -20.828125 C 5.40625 -21.578125 4.847656 -22.492188 4.421875 -23.578125 C 4.003906 -24.660156 3.796875 -25.992188 3.796875 -27.578125 C 3.796875 -29.410156 4.140625 -31.171875 4.828125 -32.859375 C 5.515625 -34.546875 6.5 -36.039062 7.78125 -37.34375 C 9.0625 -38.644531 10.613281 -39.679688 12.4375 -40.453125 C 14.269531 -41.222656 16.328125 -41.609375 18.609375 -41.609375 C 19.785156 -41.609375 20.921875 -41.484375 22.015625 -41.234375 C 23.117188 -40.992188 24.148438 -40.65625 25.109375 -40.21875 C 26.078125 -39.789062 26.957031 -39.28125 27.75 -38.6875 C 28.539062 -38.09375 29.210938 -37.445312 29.765625 -36.75 Z M 26.984375 -32.953125 "/></g></g></g><g fill="#000000" fill-opacity="1"><g transform="translate(44.726082, 83.490327)"><g><path d="M 0.65625 0 L 4.21875 -29.328125 L 8.734375 -29.328125 C 9.640625 -29.328125 10.347656 -29.113281 10.859375 -28.6875 C 11.367188 -28.269531 11.625 -27.582031 11.625 -26.625 L 11.625 -24.890625 C 12.875 -26.554688 14.1875 -27.785156 15.5625 -28.578125 C 16.9375 -29.378906 18.378906 -29.78125 19.890625 -29.78125 C 21.546875 -29.78125 22.921875 -29.242188 24.015625 -28.171875 C 25.109375 -27.097656 25.804688 -25.535156 26.109375 -23.484375 C 27.410156 -25.648438 28.832031 -27.238281 30.375 -28.25 C 31.925781 -29.269531 33.671875 -29.78125 35.609375 -29.78125 C 36.835938 -29.78125 37.941406 -29.535156 38.921875 -29.046875 C 39.898438 -28.554688 40.710938 -27.835938 41.359375 -26.890625 C 42.003906 -25.953125 42.453125 -24.789062 42.703125 -23.40625 C 42.953125 -22.019531 42.96875 -20.429688 42.75 -18.640625 L 40.53125 0 L 31.875 0 L 34.09375 -18.640625 C 34.1875 -19.429688 34.21875 -20.097656 34.1875 -20.640625 C 34.15625 -21.191406 34.066406 -21.628906 33.921875 -21.953125 C 33.785156 -22.273438 33.582031 -22.503906 33.3125 -22.640625 C 33.050781 -22.785156 32.742188 -22.859375 32.390625 -22.859375 C 31.804688 -22.859375 31.242188 -22.703125 30.703125 -22.390625 C 30.171875 -22.078125 29.660156 -21.625 29.171875 -21.03125 C 28.691406 -20.4375 28.253906 -19.71875 27.859375 -18.875 C 27.460938 -18.039062 27.113281 -17.101562 26.8125 -16.0625 L 24.921875 0 L 16.265625 0 L 18.46875 -18.640625 C 18.5625 -19.429688 18.59375 -20.097656 18.5625 -20.640625 C 18.539062 -21.191406 18.457031 -21.628906 18.3125 -21.953125 C 18.175781 -22.273438 17.972656 -22.503906 17.703125 -22.640625 C 17.441406 -22.785156 17.132812 -22.859375 16.78125 -22.859375 C 16.195312 -22.859375 15.628906 -22.695312 15.078125 -22.375 C 14.523438 -22.050781 14.007812 -21.585938 13.53125 -20.984375 C 13.050781 -20.378906 12.613281 -19.648438 12.21875 -18.796875 C 11.820312 -17.941406 11.472656 -16.984375 11.171875 -15.921875 L 9.25 0 Z M 0.65625 0 "/></g></g></g><g fill="#000000" fill-opacity="1"><g transform="translate(89.906044, 83.490327)"><g><path d="M 18.984375 -23.765625 C 17.546875 -23.765625 16.238281 -23.441406 15.0625 -22.796875 C 13.882812 -22.160156 12.867188 -21.289062 12.015625 -20.1875 C 11.171875 -19.082031 10.515625 -17.796875 10.046875 -16.328125 C 9.585938 -14.867188 9.359375 -13.3125 9.359375 -11.65625 C 9.359375 -10.707031 9.429688 -9.90625 9.578125 -9.25 C 9.734375 -8.59375 9.9375 -8.0625 10.1875 -7.65625 C 10.445312 -7.25 10.75 -6.953125 11.09375 -6.765625 C 11.445312 -6.578125 11.832031 -6.484375 12.25 -6.484375 C 12.894531 -6.484375 13.515625 -6.722656 14.109375 -7.203125 C 14.710938 -7.679688 15.285156 -8.332031 15.828125 -9.15625 C 16.367188 -9.988281 16.863281 -10.960938 17.3125 -12.078125 C 17.757812 -13.191406 18.144531 -14.378906 18.46875 -15.640625 L 19.515625 -23.765625 Z M 17.625 -4.890625 C 16.4375 -3.234375 15.101562 -1.925781 13.625 -0.96875 C 12.144531 -0.0195312 10.515625 0.453125 8.734375 0.453125 C 7.679688 0.453125 6.664062 0.238281 5.6875 -0.1875 C 4.707031 -0.613281 3.835938 -1.253906 3.078125 -2.109375 C 2.328125 -2.960938 1.722656 -4.054688 1.265625 -5.390625 C 0.816406 -6.722656 0.59375 -8.289062 0.59375 -10.09375 C 0.59375 -12.757812 1.078125 -15.285156 2.046875 -17.671875 C 3.023438 -20.054688 4.382812 -22.144531 6.125 -23.9375 C 7.863281 -25.726562 9.929688 -27.148438 12.328125 -28.203125 C 14.722656 -29.253906 17.359375 -29.78125 20.234375 -29.78125 C 21.617188 -29.78125 23.03125 -29.6875 24.46875 -29.5 C 25.90625 -29.3125 27.320312 -28.972656 28.71875 -28.484375 L 25.15625 0 L 20.453125 0 C 19.898438 0 19.441406 -0.0664062 19.078125 -0.203125 C 18.710938 -0.347656 18.421875 -0.539062 18.203125 -0.78125 C 17.984375 -1.03125 17.832031 -1.320312 17.75 -1.65625 C 17.664062 -2 17.625 -2.367188 17.625 -2.765625 Z M 17.625 -4.890625 "/></g></g></g><g fill="#000000" fill-opacity="1"><g transform="translate(119.922287, 83.490327)"><g><path d="M 11.625 -23.28125 C 12.34375 -24.539062 13.109375 -25.625 13.921875 -26.53125 C 14.734375 -27.4375 15.566406 -28.140625 16.421875 -28.640625 C 17.273438 -29.140625 18.148438 -29.421875 19.046875 -29.484375 C 19.941406 -29.554688 20.84375 -29.382812 21.75 -28.96875 L 20.171875 -20.84375 C 19.097656 -21.300781 18.09375 -21.507812 17.15625 -21.46875 C 16.21875 -21.4375 15.359375 -21.117188 14.578125 -20.515625 C 13.796875 -19.910156 13.085938 -19.003906 12.453125 -17.796875 C 11.828125 -16.585938 11.285156 -15.039062 10.828125 -13.15625 L 9.25 0 L 0.65625 0 L 4.21875 -29.328125 L 8.734375 -29.328125 C 9.640625 -29.328125 10.347656 -29.113281 10.859375 -28.6875 C 11.367188 -28.269531 11.625 -27.582031 11.625 -26.625 Z M 11.625 -23.28125 "/></g></g></g><g fill="#000000" fill-opacity="1"><g transform="translate(140.489499, 83.490327)"><g><path d="M 3.28125 -6.34375 C 3.28125 -6.46875 3.28125 -6.625 3.28125 -6.8125 C 3.28125 -7 3.289062 -7.265625 3.3125 -7.609375 C 3.34375 -7.960938 3.390625 -8.425781 3.453125 -9 C 3.523438 -9.582031 3.617188 -10.34375 3.734375 -11.28125 L 5.234375 -23.28125 L 2.890625 -23.28125 C 2.492188 -23.28125 2.160156 -23.425781 1.890625 -23.71875 C 1.628906 -24.007812 1.546875 -24.4375 1.640625 -25 L 2.03125 -28.4375 L 6.484375 -29.328125 L 8.9375 -36.5 C 9.257812 -37.394531 9.898438 -37.84375 10.859375 -37.84375 L 15.609375 -37.84375 L 14.546875 -29.28125 L 21.109375 -29.28125 L 20.375 -23.28125 L 13.8125 -23.28125 L 12.390625 -11.765625 C 12.296875 -10.992188 12.21875 -10.382812 12.15625 -9.9375 C 12.101562 -9.5 12.0625 -9.160156 12.03125 -8.921875 C 12.007812 -8.691406 12 -8.53125 12 -8.4375 C 12 -8.351562 12 -8.300781 12 -8.28125 C 12 -7.738281 12.125 -7.28125 12.375 -6.90625 C 12.632812 -6.539062 13.035156 -6.359375 13.578125 -6.359375 C 13.878906 -6.359375 14.128906 -6.390625 14.328125 -6.453125 C 14.523438 -6.523438 14.695312 -6.601562 14.84375 -6.6875 C 15 -6.769531 15.140625 -6.84375 15.265625 -6.90625 C 15.398438 -6.976562 15.554688 -7.015625 15.734375 -7.015625 C 15.992188 -7.015625 16.1875 -6.953125 16.3125 -6.828125 C 16.4375 -6.703125 16.5625 -6.507812 16.6875 -6.25 L 18.609375 -2.09375 C 17.441406 -1.25 16.1875 -0.613281 14.84375 -0.1875 C 13.507812 0.238281 12.164062 0.453125 10.8125 0.453125 C 9.675781 0.453125 8.65625 0.296875 7.75 -0.015625 C 6.84375 -0.328125 6.0625 -0.78125 5.40625 -1.375 C 4.757812 -1.96875 4.253906 -2.675781 3.890625 -3.5 C 3.523438 -4.332031 3.320312 -5.28125 3.28125 -6.34375 Z M 3.28125 -6.34375 "/></g></g></g><g fill="#cc0000" fill-opacity="1"><g transform="translate(161.774536, 83.490327)"><g><path d="M 39.015625 -23.25 C 39.015625 -21.007812 38.757812 -18.882812 38.25 -16.875 C 37.738281 -14.863281 37.007812 -12.992188 36.0625 -11.265625 C 35.125 -9.546875 33.976562 -7.992188 32.625 -6.609375 C 31.28125 -5.222656 29.773438 -4.035156 28.109375 -3.046875 C 26.441406 -2.066406 24.617188 -1.3125 22.640625 -0.78125 C 20.671875 -0.257812 18.601562 0 16.4375 0 L 1.609375 0 L 6.703125 -41.21875 L 21.53125 -41.21875 C 24.226562 -41.21875 26.65625 -40.757812 28.8125 -39.84375 C 30.96875 -38.925781 32.800781 -37.664062 34.3125 -36.0625 C 35.820312 -34.457031 36.984375 -32.5625 37.796875 -30.375 C 38.609375 -28.1875 39.015625 -25.8125 39.015625 -23.25 Z M 29.5625 -23.03125 C 29.5625 -24.707031 29.367188 -26.226562 28.984375 -27.59375 C 28.597656 -28.957031 28.019531 -30.117188 27.25 -31.078125 C 26.488281 -32.046875 25.550781 -32.789062 24.4375 -33.3125 C 23.320312 -33.84375 22.050781 -34.109375 20.625 -34.109375 L 15.078125 -34.109375 L 11.796875 -7.09375 L 17.34375 -7.09375 C 19.226562 -7.09375 20.925781 -7.460938 22.4375 -8.203125 C 23.945312 -8.953125 25.226562 -10.015625 26.28125 -11.390625 C 27.332031 -12.773438 28.140625 -14.445312 28.703125 -16.40625 C 29.273438 -18.363281 29.5625 -20.570312 29.5625 -23.03125 Z M 29.5625 -23.03125 "/></g></g></g><g fill="#cc0000" fill-opacity="1"><g transform="translate(201.890496, 83.490327)"><g><path d="M 49.765625 -41.21875 L 44.671875 0 L 36.578125 0 L 39.46875 -23.984375 C 39.539062 -24.492188 39.632812 -25.054688 39.75 -25.671875 C 39.863281 -26.285156 39.992188 -26.921875 40.140625 -27.578125 L 27.75 -6.3125 C 27.351562 -5.6875 26.859375 -5.210938 26.265625 -4.890625 C 25.671875 -4.566406 25.015625 -4.40625 24.296875 -4.40625 L 23.0625 -4.40625 C 22.34375 -4.40625 21.71875 -4.566406 21.1875 -4.890625 C 20.65625 -5.210938 20.28125 -5.6875 20.0625 -6.3125 L 12.8125 -27.671875 C 12.789062 -27.023438 12.757812 -26.398438 12.71875 -25.796875 C 12.6875 -25.191406 12.644531 -24.632812 12.59375 -24.125 L 9.765625 0 L 1.609375 0 L 6.703125 -41.21875 L 13.71875 -41.21875 C 14.113281 -41.21875 14.445312 -41.195312 14.71875 -41.15625 C 15 -41.125 15.238281 -41.0625 15.4375 -40.96875 C 15.644531 -40.875 15.835938 -40.726562 16.015625 -40.53125 C 16.203125 -40.34375 16.398438 -40.097656 16.609375 -39.796875 L 23.84375 -18.109375 C 24.050781 -17.523438 24.238281 -16.925781 24.40625 -16.3125 C 24.582031 -15.695312 24.742188 -15.078125 24.890625 -14.453125 C 25.171875 -15.078125 25.472656 -15.695312 25.796875 -16.3125 C 26.117188 -16.925781 26.46875 -17.523438 26.84375 -18.109375 L 39.46875 -39.796875 C 39.75 -40.097656 40 -40.34375 40.21875 -40.53125 C 40.445312 -40.726562 40.675781 -40.875 40.90625 -40.96875 C 41.132812 -41.0625 41.390625 -41.125 41.671875 -41.15625 C 41.953125 -41.195312 42.289062 -41.21875 42.6875 -41.21875 Z M 49.765625 -41.21875 "/></g></g></g><g fill="#cc0000" fill-opacity="1"><g transform="translate(252.473952, 83.490327)"><g><path d="M 23.8125 -15.703125 L 21.8125 -27.46875 C 21.65625 -28.207031 21.488281 -29.078125 21.3125 -30.078125 C 21.132812 -31.085938 20.960938 -32.179688 20.796875 -33.359375 C 20.335938 -32.171875 19.882812 -31.070312 19.4375 -30.0625 C 19 -29.050781 18.617188 -28.164062 18.296875 -27.40625 L 13.46875 -15.703125 Z M 36.0625 0 L 28.9375 0 C 28.144531 0 27.523438 -0.179688 27.078125 -0.546875 C 26.640625 -0.921875 26.335938 -1.410156 26.171875 -2.015625 L 24.890625 -9.421875 L 10.890625 -9.421875 L 7.84375 -2.015625 C 7.570312 -1.503906 7.148438 -1.039062 6.578125 -0.625 C 6.003906 -0.207031 5.347656 0 4.609375 0 L -2.625 0 L 17.0625 -41.21875 L 26.5 -41.21875 Z M 36.0625 0 "/></g></g></g><g fill="#cc0000" fill-opacity="1"><g transform="translate(290.213504, 83.490327)"><g><path d="M 16.828125 -21.75 C 18.148438 -21.75 19.269531 -21.953125 20.1875 -22.359375 C 21.113281 -22.765625 21.863281 -23.304688 22.4375 -23.984375 C 23.019531 -24.660156 23.4375 -25.453125 23.6875 -26.359375 C 23.945312 -27.265625 24.078125 -28.21875 24.078125 -29.21875 C 24.078125 -29.988281 23.960938 -30.691406 23.734375 -31.328125 C 23.503906 -31.960938 23.148438 -32.5 22.671875 -32.9375 C 22.191406 -33.382812 21.585938 -33.726562 20.859375 -33.96875 C 20.140625 -34.21875 19.285156 -34.34375 18.296875 -34.34375 L 15.015625 -34.34375 L 13.46875 -21.75 Z M 19.15625 -41.21875 C 21.675781 -41.21875 23.828125 -40.945312 25.609375 -40.40625 C 27.398438 -39.875 28.859375 -39.132812 29.984375 -38.1875 C 31.117188 -37.25 31.941406 -36.132812 32.453125 -34.84375 C 32.972656 -33.550781 33.234375 -32.148438 33.234375 -30.640625 C 33.234375 -29.128906 33.03125 -27.6875 32.625 -26.3125 C 32.21875 -24.945312 31.628906 -23.691406 30.859375 -22.546875 C 30.085938 -21.410156 29.144531 -20.40625 28.03125 -19.53125 C 26.914062 -18.65625 25.644531 -17.9375 24.21875 -17.375 C 24.78125 -17.050781 25.296875 -16.65625 25.765625 -16.1875 C 26.242188 -15.726562 26.640625 -15.171875 26.953125 -14.515625 L 32.953125 0 L 24.640625 0 C 23.867188 0 23.222656 -0.15625 22.703125 -0.46875 C 22.179688 -0.78125 21.804688 -1.207031 21.578125 -1.75 L 17.109375 -13.953125 C 16.890625 -14.453125 16.609375 -14.816406 16.265625 -15.046875 C 15.921875 -15.273438 15.410156 -15.390625 14.734375 -15.390625 L 12.671875 -15.390625 L 10.78125 0 L 1.609375 0 L 6.640625 -41.21875 Z M 19.15625 -41.21875 "/></g></g></g><g fill="#cc0000" fill-opacity="1"><g transform="translate(324.954268, 83.490327)"><g><path d="M 19.609375 -7.125 C 20.640625 -7.125 21.535156 -7.203125 22.296875 -7.359375 C 23.066406 -7.523438 23.722656 -7.726562 24.265625 -7.96875 C 24.816406 -8.21875 25.28125 -8.488281 25.65625 -8.78125 C 26.03125 -9.070312 26.367188 -9.335938 26.671875 -9.578125 C 26.972656 -9.828125 27.253906 -10.03125 27.515625 -10.1875 C 27.785156 -10.351562 28.070312 -10.4375 28.375 -10.4375 C 28.675781 -10.4375 28.925781 -10.382812 29.125 -10.28125 C 29.320312 -10.175781 29.46875 -10.054688 29.5625 -9.921875 L 32.78125 -6.046875 C 30.988281 -3.921875 28.863281 -2.304688 26.40625 -1.203125 C 23.945312 -0.0976562 21.148438 0.453125 18.015625 0.453125 C 15.410156 0.453125 13.101562 -0.00390625 11.09375 -0.921875 C 9.09375 -1.835938 7.398438 -3.09375 6.015625 -4.6875 C 4.640625 -6.289062 3.597656 -8.191406 2.890625 -10.390625 C 2.191406 -12.585938 1.84375 -14.960938 1.84375 -17.515625 C 1.84375 -19.867188 2.101562 -22.101562 2.625 -24.21875 C 3.15625 -26.332031 3.898438 -28.285156 4.859375 -30.078125 C 5.828125 -31.867188 6.984375 -33.476562 8.328125 -34.90625 C 9.679688 -36.34375 11.175781 -37.5625 12.8125 -38.5625 C 14.457031 -39.5625 16.222656 -40.328125 18.109375 -40.859375 C 19.992188 -41.398438 21.960938 -41.671875 24.015625 -41.671875 C 25.566406 -41.671875 26.976562 -41.523438 28.25 -41.234375 C 29.519531 -40.941406 30.664062 -40.535156 31.6875 -40.015625 C 32.71875 -39.492188 33.640625 -38.875 34.453125 -38.15625 C 35.265625 -37.445312 35.972656 -36.65625 36.578125 -35.78125 L 33.359375 -32.046875 C 33.128906 -31.785156 32.863281 -31.550781 32.5625 -31.34375 C 32.257812 -31.132812 31.863281 -31.03125 31.375 -31.03125 C 31.050781 -31.03125 30.753906 -31.101562 30.484375 -31.25 C 30.222656 -31.40625 29.957031 -31.59375 29.6875 -31.8125 C 29.414062 -32.03125 29.109375 -32.269531 28.765625 -32.53125 C 28.429688 -32.789062 28.023438 -33.03125 27.546875 -33.25 C 27.078125 -33.46875 26.515625 -33.648438 25.859375 -33.796875 C 25.210938 -33.953125 24.445312 -34.03125 23.5625 -34.03125 C 21.832031 -34.03125 20.21875 -33.660156 18.71875 -32.921875 C 17.21875 -32.191406 15.914062 -31.140625 14.8125 -29.765625 C 13.707031 -28.398438 12.84375 -26.742188 12.21875 -24.796875 C 11.59375 -22.847656 11.28125 -20.664062 11.28125 -18.25 C 11.28125 -16.488281 11.492188 -14.921875 11.921875 -13.546875 C 12.347656 -12.171875 12.925781 -11.003906 13.65625 -10.046875 C 14.394531 -9.097656 15.273438 -8.375 16.296875 -7.875 C 17.316406 -7.375 18.421875 -7.125 19.609375 -7.125 Z M 19.609375 -7.125 "/></g></g></g><g fill="#000000" fill-opacity="1"><g transform="translate(15.145216, 101.026544)"><g><path d="M 1.578125 -10.515625 L 6.015625 -10.515625 C 7.128906 -10.515625 8.113281 -10.296875 8.96875 -9.859375 C 9.832031 -9.421875 10.5 -8.800781 10.96875 -8 C 11.445312 -7.207031 11.6875 -6.296875 11.6875 -5.265625 C 11.6875 -4.234375 11.445312 -3.316406 10.96875 -2.515625 C 10.5 -1.722656 9.832031 -1.101562 8.96875 -0.65625 C 8.113281 -0.21875 7.128906 0 6.015625 0 L 1.578125 0 Z M 5.921875 -1.3125 C 6.773438 -1.3125 7.523438 -1.472656 8.171875 -1.796875 C 8.816406 -2.128906 9.3125 -2.59375 9.65625 -3.1875 C 10.007812 -3.789062 10.1875 -4.484375 10.1875 -5.265625 C 10.1875 -6.046875 10.007812 -6.734375 9.65625 -7.328125 C 9.3125 -7.921875 8.816406 -8.382812 8.171875 -8.71875 C 7.523438 -9.050781 6.773438 -9.21875 5.921875 -9.21875 L 3.078125 -9.21875 L 3.078125 -1.3125 Z M 5.921875 -1.3125 "/></g></g></g><g fill="#000000" fill-opacity="1"><g transform="translate(27.564389, 101.026544)"><g><path d="M 11.328125 0 L 11.3125 -7.671875 L 7.515625 -1.28125 L 6.828125 -1.28125 L 3.015625 -7.625 L 3.015625 0 L 1.578125 0 L 1.578125 -10.515625 L 2.8125 -10.515625 L 7.203125 -3.125 L 11.53125 -10.515625 L 12.765625 -10.515625 L 12.78125 0 Z M 11.328125 0 "/></g></g></g><g fill="#000000" fill-opacity="1"><g transform="translate(41.923121, 101.026544)"><g><path d="M 8.28125 -2.625 L 2.6875 -2.625 L 1.53125 0 L -0.015625 0 L 4.75 -10.515625 L 6.234375 -10.515625 L 11.015625 0 L 9.4375 0 Z M 7.75 -3.828125 L 5.484375 -8.984375 L 3.21875 -3.828125 Z M 7.75 -3.828125 "/></g></g></g><g fill="#000000" fill-opacity="1"><g transform="translate(52.928973, 101.026544)"><g><path d="M 8.609375 0 L 6.34375 -3.234375 C 6.0625 -3.210938 5.84375 -3.203125 5.6875 -3.203125 L 3.078125 -3.203125 L 3.078125 0 L 1.578125 0 L 1.578125 -10.515625 L 5.6875 -10.515625 C 7.039062 -10.515625 8.109375 -10.1875 8.890625 -9.53125 C 9.679688 -8.882812 10.078125 -7.992188 10.078125 -6.859375 C 10.078125 -6.046875 9.875 -5.351562 9.46875 -4.78125 C 9.070312 -4.207031 8.5 -3.789062 7.75 -3.53125 L 10.25 0 Z M 5.640625 -4.484375 C 6.585938 -4.484375 7.3125 -4.6875 7.8125 -5.09375 C 8.3125 -5.507812 8.5625 -6.097656 8.5625 -6.859375 C 8.5625 -7.617188 8.3125 -8.203125 7.8125 -8.609375 C 7.3125 -9.015625 6.585938 -9.21875 5.640625 -9.21875 L 3.078125 -9.21875 L 3.078125 -4.484375 Z M 5.640625 -4.484375 "/></g></g></g><g fill="#000000" fill-opacity="1"><g transform="translate(63.859658, 101.026544)"><g><path d="M 6.28125 0.125 C 5.226562 0.125 4.28125 -0.109375 3.4375 -0.578125 C 2.59375 -1.046875 1.925781 -1.6875 1.4375 -2.5 C 0.957031 -3.320312 0.71875 -4.242188 0.71875 -5.265625 C 0.71875 -6.285156 0.957031 -7.203125 1.4375 -8.015625 C 1.925781 -8.835938 2.59375 -9.476562 3.4375 -9.9375 C 4.289062 -10.40625 5.242188 -10.640625 6.296875 -10.640625 C 7.117188 -10.640625 7.867188 -10.5 8.546875 -10.21875 C 9.234375 -9.945312 9.816406 -9.539062 10.296875 -9 L 9.3125 -8.0625 C 8.519531 -8.882812 7.535156 -9.296875 6.359375 -9.296875 C 5.578125 -9.296875 4.867188 -9.117188 4.234375 -8.765625 C 3.609375 -8.421875 3.113281 -7.941406 2.75 -7.328125 C 2.394531 -6.710938 2.21875 -6.023438 2.21875 -5.265625 C 2.21875 -4.503906 2.394531 -3.8125 2.75 -3.1875 C 3.113281 -2.570312 3.609375 -2.085938 4.234375 -1.734375 C 4.867188 -1.390625 5.578125 -1.21875 6.359375 -1.21875 C 7.523438 -1.21875 8.507812 -1.640625 9.3125 -2.484375 L 10.296875 -1.53125 C 9.816406 -0.988281 9.234375 -0.578125 8.546875 -0.296875 C 7.859375 -0.015625 7.101562 0.125 6.28125 0.125 Z M 6.28125 0.125 "/></g></g></g><g fill="#000000" fill-opacity="1"><g transform="translate(74.730202, 101.026544)"><g/></g></g><g fill="#000000" fill-opacity="1"><g transform="translate(78.774704, 101.026544)"><g><path d="M 8.28125 -2.625 L 2.6875 -2.625 L 1.53125 0 L -0.015625 0 L 4.75 -10.515625 L 6.234375 -10.515625 L 11.015625 0 L 9.4375 0 Z M 7.75 -3.828125 L 5.484375 -8.984375 L 3.21875 -3.828125 Z M 7.75 -3.828125 "/></g></g></g><g fill="#000000" fill-opacity="1"><g transform="translate(89.780556, 101.026544)"><g><path d="M 4.640625 0.125 C 3.847656 0.125 3.082031 0.00390625 2.34375 -0.234375 C 1.613281 -0.484375 1.035156 -0.804688 0.609375 -1.203125 L 1.171875 -2.375 C 1.578125 -2.007812 2.09375 -1.710938 2.71875 -1.484375 C 3.34375 -1.265625 3.984375 -1.15625 4.640625 -1.15625 C 5.515625 -1.15625 6.164062 -1.300781 6.59375 -1.59375 C 7.03125 -1.894531 7.25 -2.289062 7.25 -2.78125 C 7.25 -3.144531 7.128906 -3.4375 6.890625 -3.65625 C 6.648438 -3.882812 6.359375 -4.054688 6.015625 -4.171875 C 5.671875 -4.296875 5.179688 -4.429688 4.546875 -4.578125 C 3.753906 -4.773438 3.113281 -4.96875 2.625 -5.15625 C 2.144531 -5.34375 1.734375 -5.632812 1.390625 -6.03125 C 1.046875 -6.425781 0.875 -6.960938 0.875 -7.640625 C 0.875 -8.203125 1.019531 -8.707031 1.3125 -9.15625 C 1.613281 -9.601562 2.0625 -9.960938 2.65625 -10.234375 C 3.257812 -10.503906 4.007812 -10.640625 4.90625 -10.640625 C 5.519531 -10.640625 6.128906 -10.554688 6.734375 -10.390625 C 7.335938 -10.234375 7.851562 -10.003906 8.28125 -9.703125 L 7.78125 -8.5 C 7.34375 -8.78125 6.875 -8.992188 6.375 -9.140625 C 5.875 -9.285156 5.382812 -9.359375 4.90625 -9.359375 C 4.050781 -9.359375 3.410156 -9.203125 2.984375 -8.890625 C 2.554688 -8.585938 2.34375 -8.191406 2.34375 -7.703125 C 2.34375 -7.335938 2.460938 -7.039062 2.703125 -6.8125 C 2.941406 -6.59375 3.238281 -6.421875 3.59375 -6.296875 C 3.957031 -6.171875 4.441406 -6.035156 5.046875 -5.890625 C 5.835938 -5.703125 6.472656 -5.507812 6.953125 -5.3125 C 7.441406 -5.125 7.859375 -4.832031 8.203125 -4.4375 C 8.546875 -4.050781 8.71875 -3.53125 8.71875 -2.875 C 8.71875 -2.320312 8.566406 -1.816406 8.265625 -1.359375 C 7.960938 -0.898438 7.503906 -0.535156 6.890625 -0.265625 C 6.285156 -0.00390625 5.535156 0.125 4.640625 0.125 Z M 4.640625 0.125 "/></g></g></g><g fill="#000000" fill-opacity="1"><g transform="translate(99.117487, 101.026544)"><g/></g></g><g fill="#000000" fill-opacity="1"><g transform="translate(103.16199, 101.026544)"><g><path d="M 8.28125 -2.625 L 2.6875 -2.625 L 1.53125 0 L -0.015625 0 L 4.75 -10.515625 L 6.234375 -10.515625 L 11.015625 0 L 9.4375 0 Z M 7.75 -3.828125 L 5.484375 -8.984375 L 3.21875 -3.828125 Z M 7.75 -3.828125 "/></g></g></g><g fill="#000000" fill-opacity="1"><g transform="translate(114.167842, 101.026544)"><g/></g></g><g fill="#000000" fill-opacity="1"><g transform="translate(118.212345, 101.026544)"><g><path d="M 4.640625 0.125 C 3.847656 0.125 3.082031 0.00390625 2.34375 -0.234375 C 1.613281 -0.484375 1.035156 -0.804688 0.609375 -1.203125 L 1.171875 -2.375 C 1.578125 -2.007812 2.09375 -1.710938 2.71875 -1.484375 C 3.34375 -1.265625 3.984375 -1.15625 4.640625 -1.15625 C 5.515625 -1.15625 6.164062 -1.300781 6.59375 -1.59375 C 7.03125 -1.894531 7.25 -2.289062 7.25 -2.78125 C 7.25 -3.144531 7.128906 -3.4375 6.890625 -3.65625 C 6.648438 -3.882812 6.359375 -4.054688 6.015625 -4.171875 C 5.671875 -4.296875 5.179688 -4.429688 4.546875 -4.578125 C 3.753906 -4.773438 3.113281 -4.96875 2.625 -5.15625 C 2.144531 -5.34375 1.734375 -5.632812 1.390625 -6.03125 C 1.046875 -6.425781 0.875 -6.960938 0.875 -7.640625 C 0.875 -8.203125 1.019531 -8.707031 1.3125 -9.15625 C 1.613281 -9.601562 2.0625 -9.960938 2.65625 -10.234375 C 3.257812 -10.503906 4.007812 -10.640625 4.90625 -10.640625 C 5.519531 -10.640625 6.128906 -10.554688 6.734375 -10.390625 C 7.335938 -10.234375 7.851562 -10.003906 8.28125 -9.703125 L 7.78125 -8.5 C 7.34375 -8.78125 6.875 -8.992188 6.375 -9.140625 C 5.875 -9.285156 5.382812 -9.359375 4.90625 -9.359375 C 4.050781 -9.359375 3.410156 -9.203125 2.984375 -8.890625 C 2.554688 -8.585938 2.34375 -8.191406 2.34375 -7.703125 C 2.34375 -7.335938 2.460938 -7.039062 2.703125 -6.8125 C 2.941406 -6.59375 3.238281 -6.421875 3.59375 -6.296875 C 3.957031 -6.171875 4.441406 -6.035156 5.046875 -5.890625 C 5.835938 -5.703125 6.472656 -5.507812 6.953125 -5.3125 C 7.441406 -5.125 7.859375 -4.832031 8.203125 -4.4375 C 8.546875 -4.050781 8.71875 -3.53125 8.71875 -2.875 C 8.71875 -2.320312 8.566406 -1.816406 8.265625 -1.359375 C 7.960938 -0.898438 7.503906 -0.535156 6.890625 -0.265625 C 6.285156 -0.00390625 5.535156 0.125 4.640625 0.125 Z M 4.640625 0.125 "/></g></g></g><g fill="#000000" fill-opacity="1"><g transform="translate(127.549276, 101.026544)"><g><path d="M 9.21875 -1.3125 L 9.21875 0 L 1.578125 0 L 1.578125 -10.515625 L 9 -10.515625 L 9 -9.21875 L 3.078125 -9.21875 L 3.078125 -5.984375 L 8.359375 -5.984375 L 8.359375 -4.703125 L 3.078125 -4.703125 L 3.078125 -1.3125 Z M 9.21875 -1.3125 "/></g></g></g><g fill="#000000" fill-opacity="1"><g transform="translate(137.622943, 101.026544)"><g><path d="M 8.609375 0 L 6.34375 -3.234375 C 6.0625 -3.210938 5.84375 -3.203125 5.6875 -3.203125 L 3.078125 -3.203125 L 3.078125 0 L 1.578125 0 L 1.578125 -10.515625 L 5.6875 -10.515625 C 7.039062 -10.515625 8.109375 -10.1875 8.890625 -9.53125 C 9.679688 -8.882812 10.078125 -7.992188 10.078125 -6.859375 C 10.078125 -6.046875 9.875 -5.351562 9.46875 -4.78125 C 9.070312 -4.207031 8.5 -3.789062 7.75 -3.53125 L 10.25 0 Z M 5.640625 -4.484375 C 6.585938 -4.484375 7.3125 -4.6875 7.8125 -5.09375 C 8.3125 -5.507812 8.5625 -6.097656 8.5625 -6.859375 C 8.5625 -7.617188 8.3125 -8.203125 7.8125 -8.609375 C 7.3125 -9.015625 6.585938 -9.21875 5.640625 -9.21875 L 3.078125 -9.21875 L 3.078125 -4.484375 Z M 5.640625 -4.484375 "/></g></g></g><g fill="#000000" fill-opacity="1"><g transform="translate(148.553627, 101.026544)"><g><path d="M 10.71875 -10.515625 L 6.109375 0 L 4.609375 0 L -0.015625 -10.515625 L 1.609375 -10.515625 L 5.390625 -1.875 L 9.21875 -10.515625 Z M 10.71875 -10.515625 "/></g></g></g><g fill="#000000" fill-opacity="1"><g transform="translate(159.258776, 101.026544)"><g><path d="M 1.578125 -10.515625 L 3.078125 -10.515625 L 3.078125 0 L 1.578125 0 Z M 1.578125 -10.515625 "/></g></g></g><g fill="#000000" fill-opacity="1"><g transform="translate(163.919723, 101.026544)"><g><path d="M 6.28125 0.125 C 5.226562 0.125 4.28125 -0.109375 3.4375 -0.578125 C 2.59375 -1.046875 1.925781 -1.6875 1.4375 -2.5 C 0.957031 -3.320312 0.71875 -4.242188 0.71875 -5.265625 C 0.71875 -6.285156 0.957031 -7.203125 1.4375 -8.015625 C 1.925781 -8.835938 2.59375 -9.476562 3.4375 -9.9375 C 4.289062 -10.40625 5.242188 -10.640625 6.296875 -10.640625 C 7.117188 -10.640625 7.867188 -10.5 8.546875 -10.21875 C 9.234375 -9.945312 9.816406 -9.539062 10.296875 -9 L 9.3125 -8.0625 C 8.519531 -8.882812 7.535156 -9.296875 6.359375 -9.296875 C 5.578125 -9.296875 4.867188 -9.117188 4.234375 -8.765625 C 3.609375 -8.421875 3.113281 -7.941406 2.75 -7.328125 C 2.394531 -6.710938 2.21875 -6.023438 2.21875 -5.265625 C 2.21875 -4.503906 2.394531 -3.8125 2.75 -3.1875 C 3.113281 -2.570312 3.609375 -2.085938 4.234375 -1.734375 C 4.867188 -1.390625 5.578125 -1.21875 6.359375 -1.21875 C 7.523438 -1.21875 8.507812 -1.640625 9.3125 -2.484375 L 10.296875 -1.53125 C 9.816406 -0.988281 9.234375 -0.578125 8.546875 -0.296875 C 7.859375 -0.015625 7.101562 0.125 6.28125 0.125 Z M 6.28125 0.125 "/></g></g></g><g fill="#000000" fill-opacity="1"><g transform="translate(174.790266, 101.026544)"><g><path d="M 9.21875 -1.3125 L 9.21875 0 L 1.578125 0 L 1.578125 -10.515625 L 9 -10.515625 L 9 -9.21875 L 3.078125 -9.21875 L 3.078125 -5.984375 L 8.359375 -5.984375 L 8.359375 -4.703125 L 3.078125 -4.703125 L 3.078125 -1.3125 Z M 9.21875 -1.3125 "/></g></g></g><g fill="#000000" fill-opacity="1"><g transform="translate(184.863933, 101.026544)"><g/></g></g><g fill="#000000" fill-opacity="1"><g transform="translate(188.908436, 101.026544)"><g><path d="M 3.078125 -9.21875 L 3.078125 -5.546875 L 8.359375 -5.546875 L 8.359375 -4.25 L 3.078125 -4.25 L 3.078125 0 L 1.578125 0 L 1.578125 -10.515625 L 9 -10.515625 L 9 -9.21875 Z M 3.078125 -9.21875 "/></g></g></g><g fill="#000000" fill-opacity="1"><g transform="translate(198.455854, 101.026544)"><g><path d="M 6.328125 0.125 C 5.265625 0.125 4.304688 -0.109375 3.453125 -0.578125 C 2.597656 -1.046875 1.925781 -1.691406 1.4375 -2.515625 C 0.957031 -3.335938 0.71875 -4.253906 0.71875 -5.265625 C 0.71875 -6.273438 0.957031 -7.191406 1.4375 -8.015625 C 1.925781 -8.835938 2.597656 -9.476562 3.453125 -9.9375 C 4.304688 -10.40625 5.265625 -10.640625 6.328125 -10.640625 C 7.378906 -10.640625 8.332031 -10.40625 9.1875 -9.9375 C 10.039062 -9.476562 10.707031 -8.835938 11.1875 -8.015625 C 11.664062 -7.203125 11.90625 -6.285156 11.90625 -5.265625 C 11.90625 -4.242188 11.664062 -3.320312 11.1875 -2.5 C 10.707031 -1.6875 10.039062 -1.046875 9.1875 -0.578125 C 8.332031 -0.109375 7.378906 0.125 6.328125 0.125 Z M 6.328125 -1.21875 C 7.097656 -1.21875 7.789062 -1.390625 8.40625 -1.734375 C 9.019531 -2.085938 9.503906 -2.570312 9.859375 -3.1875 C 10.222656 -3.8125 10.40625 -4.503906 10.40625 -5.265625 C 10.40625 -6.023438 10.222656 -6.710938 9.859375 -7.328125 C 9.503906 -7.941406 9.019531 -8.421875 8.40625 -8.765625 C 7.789062 -9.117188 7.097656 -9.296875 6.328125 -9.296875 C 5.554688 -9.296875 4.859375 -9.117188 4.234375 -8.765625 C 3.609375 -8.421875 3.113281 -7.941406 2.75 -7.328125 C 2.394531 -6.710938 2.21875 -6.023438 2.21875 -5.265625 C 2.21875 -4.503906 2.394531 -3.8125 2.75 -3.1875 C 3.113281 -2.570312 3.609375 -2.085938 4.234375 -1.734375 C 4.859375 -1.390625 5.554688 -1.21875 6.328125 -1.21875 Z M 6.328125 -1.21875 "/></g></g></g><g fill="#000000" fill-opacity="1"><g transform="translate(211.085535, 101.026544)"><g><path d="M 8.609375 0 L 6.34375 -3.234375 C 6.0625 -3.210938 5.84375 -3.203125 5.6875 -3.203125 L 3.078125 -3.203125 L 3.078125 0 L 1.578125 0 L 1.578125 -10.515625 L 5.6875 -10.515625 C 7.039062 -10.515625 8.109375 -10.1875 8.890625 -9.53125 C 9.679688 -8.882812 10.078125 -7.992188 10.078125 -6.859375 C 10.078125 -6.046875 9.875 -5.351562 9.46875 -4.78125 C 9.070312 -4.207031 8.5 -3.789062 7.75 -3.53125 L 10.25 0 Z M 5.640625 -4.484375 C 6.585938 -4.484375 7.3125 -4.6875 7.8125 -5.09375 C 8.3125 -5.507812 8.5625 -6.097656 8.5625 -6.859375 C 8.5625 -7.617188 8.3125 -8.203125 7.8125 -8.609375 C 7.3125 -9.015625 6.585938 -9.21875 5.640625 -9.21875 L 3.078125 -9.21875 L 3.078125 -4.484375 Z M 5.640625 -4.484375 "/></g></g></g><g fill="#000000" fill-opacity="1"><g transform="translate(222.016219, 101.026544)"><g/></g></g><g fill="#000000" fill-opacity="1"><g transform="translate(226.060732, 101.026544)"><g><path d="M 9.21875 -1.3125 L 9.21875 0 L 1.578125 0 L 1.578125 -10.515625 L 9 -10.515625 L 9 -9.21875 L 3.078125 -9.21875 L 3.078125 -5.984375 L 8.359375 -5.984375 L 8.359375 -4.703125 L 3.078125 -4.703125 L 3.078125 -1.3125 Z M 9.21875 -1.3125 "/></g></g></g><g fill="#000000" fill-opacity="1"><g transform="translate(236.13441, 101.026544)"><g><path d="M 10.71875 -10.515625 L 6.109375 0 L 4.609375 0 L -0.015625 -10.515625 L 1.609375 -10.515625 L 5.390625 -1.875 L 9.21875 -10.515625 Z M 10.71875 -10.515625 "/></g></g></g><g fill="#000000" fill-opacity="1"><g transform="translate(246.839549, 101.026544)"><g><path d="M 9.21875 -1.3125 L 9.21875 0 L 1.578125 0 L 1.578125 -10.515625 L 9 -10.515625 L 9 -9.21875 L 3.078125 -9.21875 L 3.078125 -5.984375 L 8.359375 -5.984375 L 8.359375 -4.703125 L 3.078125 -4.703125 L 3.078125 -1.3125 Z M 9.21875 -1.3125 "/></g></g></g><g fill="#000000" fill-opacity="1"><g transform="translate(256.913226, 101.026544)"><g><path d="M 8.609375 0 L 6.34375 -3.234375 C 6.0625 -3.210938 5.84375 -3.203125 5.6875 -3.203125 L 3.078125 -3.203125 L 3.078125 0 L 1.578125 0 L 1.578125 -10.515625 L 5.6875 -10.515625 C 7.039062 -10.515625 8.109375 -10.1875 8.890625 -9.53125 C 9.679688 -8.882812 10.078125 -7.992188 10.078125 -6.859375 C 10.078125 -6.046875 9.875 -5.351562 9.46875 -4.78125 C 9.070312 -4.207031 8.5 -3.789062 7.75 -3.53125 L 10.25 0 Z M 5.640625 -4.484375 C 6.585938 -4.484375 7.3125 -4.6875 7.8125 -5.09375 C 8.3125 -5.507812 8.5625 -6.097656 8.5625 -6.859375 C 8.5625 -7.617188 8.3125 -8.203125 7.8125 -8.609375 C 7.3125 -9.015625 6.585938 -9.21875 5.640625 -9.21875 L 3.078125 -9.21875 L 3.078125 -4.484375 Z M 5.640625 -4.484375 "/></g></g></g><g fill="#000000" fill-opacity="1"><g transform="translate(267.843911, 101.026544)"><g><path d="M 5.609375 -3.640625 L 5.609375 0 L 4.125 0 L 4.125 -3.671875 L -0.0625 -10.515625 L 1.546875 -10.515625 L 4.921875 -4.96875 L 8.296875 -10.515625 L 9.78125 -10.515625 Z M 5.609375 -3.640625 "/></g></g></g><g fill="#000000" fill-opacity="1"><g transform="translate(277.571761, 101.026544)"><g/></g></g><g fill="#000000" fill-opacity="1"><g transform="translate(281.616253, 101.026544)"><g><path d="M 8.65625 -5.453125 C 9.269531 -5.285156 9.75 -4.976562 10.09375 -4.53125 C 10.445312 -4.082031 10.625 -3.519531 10.625 -2.84375 C 10.625 -1.925781 10.28125 -1.222656 9.59375 -0.734375 C 8.90625 -0.242188 7.90625 0 6.59375 0 L 1.578125 0 L 1.578125 -10.515625 L 6.296875 -10.515625 C 7.503906 -10.515625 8.4375 -10.273438 9.09375 -9.796875 C 9.75 -9.316406 10.078125 -8.648438 10.078125 -7.796875 C 10.078125 -7.242188 9.945312 -6.765625 9.6875 -6.359375 C 9.425781 -5.960938 9.082031 -5.660156 8.65625 -5.453125 Z M 3.078125 -9.296875 L 3.078125 -5.9375 L 6.15625 -5.9375 C 6.925781 -5.9375 7.519531 -6.078125 7.9375 -6.359375 C 8.351562 -6.648438 8.5625 -7.070312 8.5625 -7.625 C 8.5625 -8.175781 8.351562 -8.59375 7.9375 -8.875 C 7.519531 -9.15625 6.925781 -9.296875 6.15625 -9.296875 Z M 6.53125 -1.21875 C 7.382812 -1.21875 8.023438 -1.359375 8.453125 -1.640625 C 8.890625 -1.921875 9.109375 -2.363281 9.109375 -2.96875 C 9.109375 -4.132812 8.25 -4.71875 6.53125 -4.71875 L 3.078125 -4.71875 L 3.078125 -1.21875 Z M 6.53125 -1.21875 "/></g></g></g><g fill="#000000" fill-opacity="1"><g transform="translate(292.997987, 101.026544)"><g><path d="M 5.9375 0.125 C 4.53125 0.125 3.4375 -0.273438 2.65625 -1.078125 C 1.875 -1.878906 1.484375 -3.035156 1.484375 -4.546875 L 1.484375 -10.515625 L 2.984375 -10.515625 L 2.984375 -4.59375 C 2.984375 -2.34375 3.972656 -1.21875 5.953125 -1.21875 C 6.910156 -1.21875 7.644531 -1.492188 8.15625 -2.046875 C 8.664062 -2.609375 8.921875 -3.457031 8.921875 -4.59375 L 8.921875 -10.515625 L 10.390625 -10.515625 L 10.390625 -4.546875 C 10.390625 -3.023438 10 -1.863281 9.21875 -1.0625 C 8.4375 -0.269531 7.34375 0.125 5.9375 0.125 Z M 5.9375 0.125 "/></g></g></g><g fill="#000000" fill-opacity="1"><g transform="translate(304.890921, 101.026544)"><g><path d="M 4.640625 0.125 C 3.847656 0.125 3.082031 0.00390625 2.34375 -0.234375 C 1.613281 -0.484375 1.035156 -0.804688 0.609375 -1.203125 L 1.171875 -2.375 C 1.578125 -2.007812 2.09375 -1.710938 2.71875 -1.484375 C 3.34375 -1.265625 3.984375 -1.15625 4.640625 -1.15625 C 5.515625 -1.15625 6.164062 -1.300781 6.59375 -1.59375 C 7.03125 -1.894531 7.25 -2.289062 7.25 -2.78125 C 7.25 -3.144531 7.128906 -3.4375 6.890625 -3.65625 C 6.648438 -3.882812 6.359375 -4.054688 6.015625 -4.171875 C 5.671875 -4.296875 5.179688 -4.429688 4.546875 -4.578125 C 3.753906 -4.773438 3.113281 -4.96875 2.625 -5.15625 C 2.144531 -5.34375 1.734375 -5.632812 1.390625 -6.03125 C 1.046875 -6.425781 0.875 -6.960938 0.875 -7.640625 C 0.875 -8.203125 1.019531 -8.707031 1.3125 -9.15625 C 1.613281 -9.601562 2.0625 -9.960938 2.65625 -10.234375 C 3.257812 -10.503906 4.007812 -10.640625 4.90625 -10.640625 C 5.519531 -10.640625 6.128906 -10.554688 6.734375 -10.390625 C 7.335938 -10.234375 7.851562 -10.003906 8.28125 -9.703125 L 7.78125 -8.5 C 7.34375 -8.78125 6.875 -8.992188 6.375 -9.140625 C 5.875 -9.285156 5.382812 -9.359375 4.90625 -9.359375 C 4.050781 -9.359375 3.410156 -9.203125 2.984375 -8.890625 C 2.554688 -8.585938 2.34375 -8.191406 2.34375 -7.703125 C 2.34375 -7.335938 2.460938 -7.039062 2.703125 -6.8125 C 2.941406 -6.59375 3.238281 -6.421875 3.59375 -6.296875 C 3.957031 -6.171875 4.441406 -6.035156 5.046875 -5.890625 C 5.835938 -5.703125 6.472656 -5.507812 6.953125 -5.3125 C 7.441406 -5.125 7.859375 -4.832031 8.203125 -4.4375 C 8.546875 -4.050781 8.71875 -3.53125 8.71875 -2.875 C 8.71875 -2.320312 8.566406 -1.816406 8.265625 -1.359375 C 7.960938 -0.898438 7.503906 -0.535156 6.890625 -0.265625 C 6.285156 -0.00390625 5.535156 0.125 4.640625 0.125 Z M 4.640625 0.125 "/></g></g></g><g fill="#000000" fill-opacity="1"><g transform="translate(314.227852, 101.026544)"><g><path d="M 1.578125 -10.515625 L 3.078125 -10.515625 L 3.078125 0 L 1.578125 0 Z M 1.578125 -10.515625 "/></g></g></g><g fill="#000000" fill-opacity="1"><g transform="translate(318.888809, 101.026544)"><g><path d="M 10.625 -10.515625 L 10.625 0 L 9.390625 0 L 3.078125 -7.84375 L 3.078125 0 L 1.578125 0 L 1.578125 -10.515625 L 2.8125 -10.515625 L 9.125 -2.671875 L 9.125 -10.515625 Z M 10.625 -10.515625 "/></g></g></g><g fill="#000000" fill-opacity="1"><g transform="translate(331.097495, 101.026544)"><g><path d="M 9.21875 -1.3125 L 9.21875 0 L 1.578125 0 L 1.578125 -10.515625 L 9 -10.515625 L 9 -9.21875 L 3.078125 -9.21875 L 3.078125 -5.984375 L 8.359375 -5.984375 L 8.359375 -4.703125 L 3.078125 -4.703125 L 3.078125 -1.3125 Z M 9.21875 -1.3125 "/></g></g></g><g fill="#000000" fill-opacity="1"><g transform="translate(341.171152, 101.026544)"><g><path d="M 4.640625 0.125 C 3.847656 0.125 3.082031 0.00390625 2.34375 -0.234375 C 1.613281 -0.484375 1.035156 -0.804688 0.609375 -1.203125 L 1.171875 -2.375 C 1.578125 -2.007812 2.09375 -1.710938 2.71875 -1.484375 C 3.34375 -1.265625 3.984375 -1.15625 4.640625 -1.15625 C 5.515625 -1.15625 6.164062 -1.300781 6.59375 -1.59375 C 7.03125 -1.894531 7.25 -2.289062 7.25 -2.78125 C 7.25 -3.144531 7.128906 -3.4375 6.890625 -3.65625 C 6.648438 -3.882812 6.359375 -4.054688 6.015625 -4.171875 C 5.671875 -4.296875 5.179688 -4.429688 4.546875 -4.578125 C 3.753906 -4.773438 3.113281 -4.96875 2.625 -5.15625 C 2.144531 -5.34375 1.734375 -5.632812 1.390625 -6.03125 C 1.046875 -6.425781 0.875 -6.960938 0.875 -7.640625 C 0.875 -8.203125 1.019531 -8.707031 1.3125 -9.15625 C 1.613281 -9.601562 2.0625 -9.960938 2.65625 -10.234375 C 3.257812 -10.503906 4.007812 -10.640625 4.90625 -10.640625 C 5.519531 -10.640625 6.128906 -10.554688 6.734375 -10.390625 C 7.335938 -10.234375 7.851562 -10.003906 8.28125 -9.703125 L 7.78125 -8.5 C 7.34375 -8.78125 6.875 -8.992188 6.375 -9.140625 C 5.875 -9.285156 5.382812 -9.359375 4.90625 -9.359375 C 4.050781 -9.359375 3.410156 -9.203125 2.984375 -8.890625 C 2.554688 -8.585938 2.34375 -8.191406 2.34375 -7.703125 C 2.34375 -7.335938 2.460938 -7.039062 2.703125 -6.8125 C 2.941406 -6.59375 3.238281 -6.421875 3.59375 -6.296875 C 3.957031 -6.171875 4.441406 -6.035156 5.046875 -5.890625 C 5.835938 -5.703125 6.472656 -5.507812 6.953125 -5.3125 C 7.441406 -5.125 7.859375 -4.832031 8.203125 -4.4375 C 8.546875 -4.050781 8.71875 -3.53125 8.71875 -2.875 C 8.71875 -2.320312 8.566406 -1.816406 8.265625 -1.359375 C 7.960938 -0.898438 7.503906 -0.535156 6.890625 -0.265625 C 6.285156 -0.00390625 5.535156 0.125 4.640625 0.125 Z M 4.640625 0.125 "/></g></g></g><g fill="#000000" fill-opacity="1"><g transform="translate(350.508083, 101.026544)"><g><path d="M 4.640625 0.125 C 3.847656 0.125 3.082031 0.00390625 2.34375 -0.234375 C 1.613281 -0.484375 1.035156 -0.804688 0.609375 -1.203125 L 1.171875 -2.375 C 1.578125 -2.007812 2.09375 -1.710938 2.71875 -1.484375 C 3.34375 -1.265625 3.984375 -1.15625 4.640625 -1.15625 C 5.515625 -1.15625 6.164062 -1.300781 6.59375 -1.59375 C 7.03125 -1.894531 7.25 -2.289062 7.25 -2.78125 C 7.25 -3.144531 7.128906 -3.4375 6.890625 -3.65625 C 6.648438 -3.882812 6.359375 -4.054688 6.015625 -4.171875 C 5.671875 -4.296875 5.179688 -4.429688 4.546875 -4.578125 C 3.753906 -4.773438 3.113281 -4.96875 2.625 -5.15625 C 2.144531 -5.34375 1.734375 -5.632812 1.390625 -6.03125 C 1.046875 -6.425781 0.875 -6.960938 0.875 -7.640625 C 0.875 -8.203125 1.019531 -8.707031 1.3125 -9.15625 C 1.613281 -9.601562 2.0625 -9.960938 2.65625 -10.234375 C 3.257812 -10.503906 4.007812 -10.640625 4.90625 -10.640625 C 5.519531 -10.640625 6.128906 -10.554688 6.734375 -10.390625 C 7.335938 -10.234375 7.851562 -10.003906 8.28125 -9.703125 L 7.78125 -8.5 C 7.34375 -8.78125 6.875 -8.992188 6.375 -9.140625 C 5.875 -9.285156 5.382812 -9.359375 4.90625 -9.359375 C 4.050781 -9.359375 3.410156 -9.203125 2.984375 -8.890625 C 2.554688 -8.585938 2.34375 -8.191406 2.34375 -7.703125 C 2.34375 -7.335938 2.460938 -7.039062 2.703125 -6.8125 C 2.941406 -6.59375 3.238281 -6.421875 3.59375 -6.296875 C 3.957031 -6.171875 4.441406 -6.035156 5.046875 -5.890625 C 5.835938 -5.703125 6.472656 -5.507812 6.953125 -5.3125 C 7.441406 -5.125 7.859375 -4.832031 8.203125 -4.4375 C 8.546875 -4.050781 8.71875 -3.53125 8.71875 -2.875 C 8.71875 -2.320312 8.566406 -1.816406 8.265625 -1.359375 C 7.960938 -0.898438 7.503906 -0.535156 6.890625 -0.265625 C 6.285156 -0.00390625 5.535156 0.125 4.640625 0.125 Z M 4.640625 0.125 "/></g></g></g></svg>