<svg width="32" height="32" viewBox="0 0 32 32" fill="none" xmlns="http://www.w3.org/2000/svg">
  <circle cx="21" cy="16" r="5" fill="currentColor"/>
  <path d="M16 6C16 3.79086 14.2091 2 12 2C9.79086 2 8 3.79086 8 6C8 8.20914 9.79086 10 12 10H16V6Z" fill="currentColor"/>
  <path d="M8 16C8 13.7909 9.79086 12 12 12H16V20H12C9.79086 20 8 18.2091 8 16Z" fill="currentColor"/>
  <path d="M8 26C8 23.7909 9.79086 22 12 22H16V26C16 28.2091 14.2091 30 12 30C9.79086 30 8 28.2091 8 26Z" fill="currentColor"/>
  <path d="M16 2H12C14.2091 2 16 3.79086 16 6V10C18.2091 10 20 8.20914 20 6C20 3.79086 18.2091 2 16 2Z" fill="currentColor"/>
</svg>
